<svg xmlns="http://www.w3.org/2000/svg" viewBox="0 0 240 180" width="240" height="180" role="img" aria-label="frame: a brass djinni lamp with gems, a flame and a curl of magic smoke"><defs>
<linearGradient id="frame-djinni-dark-brass" x1="0" y1="0" x2="1" y2="1"><stop offset="0" stop-color="#f8e3a0"/><stop offset=".4" stop-color="#d4a543"/><stop offset=".75" stop-color="#a67a2a"/><stop offset="1" stop-color="#6e4f18"/></linearGradient>
<linearGradient id="frame-djinni-dark-brassv" x1="0" y1="0" x2="0" y2="1"><stop offset="0" stop-color="#f8e3a0"/><stop offset=".5" stop-color="#c9973a"/><stop offset="1" stop-color="#7a5a1e"/></linearGradient>
<linearGradient id="frame-djinni-dark-steel" x1="0" y1="0" x2="1" y2="1"><stop offset="0" stop-color="#f4f6f8"/><stop offset=".6" stop-color="#b9c3cc"/><stop offset="1" stop-color="#7e8a96"/></linearGradient>
<radialGradient id="frame-djinni-dark-dish" cx=".38" cy=".3" r=".8"><stop offset="0" stop-color="#ffffff"/><stop offset=".55" stop-color="#cfd7de"/><stop offset="1" stop-color="#8b97a3"/></radialGradient>
<linearGradient id="frame-djinni-dark-glass" x1="0" y1="0" x2="1" y2="0"><stop offset="0" stop-color="#ffffff" stop-opacity="0.22"/><stop offset=".35" stop-color="#bfe3f0" stop-opacity="0.08"/><stop offset="1" stop-color="#7fb4d6" stop-opacity="0.2"/></linearGradient>
<radialGradient id="frame-djinni-dark-warm" cx=".5" cy=".5" r=".5"><stop offset="0" stop-color="#ffcf6a" stop-opacity="0.6"/><stop offset="1" stop-color="#ffcf6a" stop-opacity="0"/></radialGradient>
<radialGradient id="frame-djinni-dark-fly" cx=".5" cy=".5" r=".5"><stop offset="0" stop-color="#ffe7a3" stop-opacity=".95"/><stop offset=".35" stop-color="#ffd58a" stop-opacity=".45"/><stop offset="1" stop-color="#ffd58a" stop-opacity="0"/></radialGradient>
<radialGradient id="frame-djinni-dark-flame" cx=".5" cy=".7" r=".6"><stop offset="0" stop-color="#fffbe6"/><stop offset=".4" stop-color="#ffd24a"/><stop offset="1" stop-color="#ff7a1a"/></radialGradient>
<radialGradient id="frame-djinni-dark-magic" cx=".5" cy=".5" r=".5"><stop offset="0" stop-color="#cbb8ff" stop-opacity="0.55"/><stop offset="1" stop-color="#cbb8ff" stop-opacity="0"/></radialGradient>
<linearGradient id="frame-djinni-dark-paper" x1="0" y1="0" x2="0" y2="1"><stop offset="0" stop-color="#f3f1ec"/><stop offset="1" stop-color="#e4e0d8"/></linearGradient>
<filter id="frame-djinni-dark-sh" x="-10%" y="-10%" width="120%" height="130%"><feDropShadow dx="0" dy="3" stdDeviation="3" flood-color="#2b2622" flood-opacity=".2"/></filter>
</defs><rect width="240" height="180" rx="12" fill="#141a2e"/><circle cx="28" cy="24" r="1.2" fill="#eee6cf" opacity=".7"/><circle cx="62" cy="44" r="0.9" fill="#eee6cf" opacity=".7"/><circle cx="206" cy="30" r="1.3" fill="#eee6cf" opacity=".7"/><circle cx="188" cy="62" r="0.8" fill="#eee6cf" opacity=".7"/><circle cx="40" cy="88" r="0.8" fill="#eee6cf" opacity=".7"/><circle cx="216" cy="104" r="1" fill="#eee6cf" opacity=".7"/><g transform="translate(-12 0)"><ellipse cx="122" cy="157" rx="54" ry="6" fill="#000" opacity=".18"/>
<circle cx="172" cy="52" r="60" fill="url(#frame-djinni-dark-magic)"/>
<g transform="translate(0 -9)"><path d="M199 76c-9-12 7-20 0-34c-6-11-22-8-21 3c1 8 12 7 11-1" stroke="#d9ccff" stroke-width="9" stroke-linecap="round" fill="none" opacity=".2"/>
<path d="M199 76c-9-12 7-20 0-34c-6-11-22-8-21 3c1 8 12 7 11-1" stroke="#d9ccff" stroke-width="4" stroke-linecap="round" fill="none" opacity=".4"/>
<path d="M199 76c-9-12 7-20 0-34c-6-11-22-8-21 3c1 8 12 7 11-1" stroke="#d9ccff" stroke-width="1.8" stroke-linecap="round" fill="none" opacity=".9"/>
<path d="M195 70c-4-6 2-10 0-16" stroke="#d9ccff" stroke-width="1.2" stroke-linecap="round" fill="none" opacity=".6"/><path d="M201 72c6-10-4-16 2-26c3-5 9-6 12-2" stroke="#d9ccff" stroke-width="1" stroke-linecap="round" fill="none" opacity=".55"/></g><path transform="translate(150 26) scale(0.9)" d="M0-5L1.3-1.3 5 0 1.3 1.3 0 5-1.3 1.3-5 0-1.3-1.3z" fill="#fff3c4"/><path transform="translate(182 46) scale(0.6)" d="M0-5L1.3-1.3 5 0 1.3 1.3 0 5-1.3 1.3-5 0-1.3-1.3z" fill="#fff3c4"/><path transform="translate(140 50) scale(0.5)" d="M0-5L1.3-1.3 5 0 1.3 1.3 0 5-1.3 1.3-5 0-1.3-1.3z" fill="#fff3c4"/><path transform="translate(200 22) scale(0.7)" d="M0-5L1.3-1.3 5 0 1.3 1.3 0 5-1.3 1.3-5 0-1.3-1.3z" fill="#fff3c4"/><path transform="translate(164 66) scale(0.45)" d="M0-5L1.3-1.3 5 0 1.3 1.3 0 5-1.3 1.3-5 0-1.3-1.3z" fill="#fff3c4"/>
<path d="M84 116c-26-10-34 20-8 20" stroke="url(#frame-djinni-dark-brass)" stroke-width="7" fill="none" stroke-linecap="round"/><path d="M82 118c-18-6-24 12-8 14" stroke="#fff" stroke-opacity=".4" stroke-width="1.8" fill="none" stroke-linecap="round"/>
<path d="M108 140h28l6 10h-40z" fill="url(#frame-djinni-dark-brass)"/><path d="M104 148h36" stroke="#6e4f18" stroke-opacity=".5"/><path d="M111 141l-0.9 6" stroke="#6e4f18" stroke-opacity=".35" stroke-width=".9"/><path d="M115 141l-0.6 6" stroke="#6e4f18" stroke-opacity=".35" stroke-width=".9"/><path d="M119 141l-0.2 6" stroke="#6e4f18" stroke-opacity=".35" stroke-width=".9"/><path d="M123 141l0.1 6" stroke="#6e4f18" stroke-opacity=".35" stroke-width=".9"/><path d="M127 141l0.4 6" stroke="#6e4f18" stroke-opacity=".35" stroke-width=".9"/><path d="M131 141l0.7 6" stroke="#6e4f18" stroke-opacity=".35" stroke-width=".9"/><ellipse cx="122" cy="151" rx="24" ry="4.5" fill="url(#frame-djinni-dark-brassv)"/>
<path d="M150 112c18-4 32-12 44-22l5 5c-10 14-26 26-46 32z" fill="url(#frame-djinni-dark-brass)"/><path d="M154 114c16-4 28-11 40-21" stroke="#fff" stroke-opacity=".5" stroke-width="1.5" fill="none"/><path d="M188 89l5 7" stroke="#6e4f18" stroke-width="3.2" stroke-opacity=".5" stroke-linecap="round"/><path d="M188.6 88.4l5 7" stroke="#f8e3a0" stroke-width="1" stroke-opacity=".8"/><path d="M178 102q7-4 11-9" stroke="#fff3c4" stroke-opacity=".85" stroke-width="1.5" fill="none" stroke-linecap="round"/>
<path d="M160 108l5 12" stroke="#6e4f18" stroke-width="3" stroke-opacity=".55"/><path d="M161 107l5 12" stroke="#f8e3a0" stroke-width="1" stroke-opacity=".7"/>
<ellipse cx="122" cy="122" rx="44" ry="20" fill="url(#frame-djinni-dark-brass)"/><path d="M90 124q6 -8 12 0" stroke="#6e4f18" stroke-opacity=".55" stroke-width="1.3" fill="none"/><path d="M104 124q6 -8 12 0" stroke="#6e4f18" stroke-opacity=".55" stroke-width="1.3" fill="none"/><path d="M128 124q6 -8 12 0" stroke="#6e4f18" stroke-opacity=".55" stroke-width="1.3" fill="none"/><path d="M142 124q6 -8 12 0" stroke="#6e4f18" stroke-opacity=".55" stroke-width="1.3" fill="none"/><circle cx="92" cy="131" r="1.2" fill="#6e4f18" opacity=".6"/><circle cx="99" cy="131" r="1.2" fill="#6e4f18" opacity=".6"/><circle cx="106" cy="131" r="1.2" fill="#6e4f18" opacity=".6"/><circle cx="113" cy="131" r="1.2" fill="#6e4f18" opacity=".6"/><circle cx="120" cy="131" r="1.2" fill="#6e4f18" opacity=".6"/><circle cx="127" cy="131" r="1.2" fill="#6e4f18" opacity=".6"/><circle cx="134" cy="131" r="1.2" fill="#6e4f18" opacity=".6"/><circle cx="141" cy="131" r="1.2" fill="#6e4f18" opacity=".6"/><circle cx="148" cy="131" r="1.2" fill="#6e4f18" opacity=".6"/><path d="M79 126Q122 142 165 126" stroke="#6e4f18" stroke-opacity=".45" stroke-width="1.3" fill="none"/><path d="M79 127.8Q122 143.8 165 127.8" stroke="#f8e3a0" stroke-opacity=".5" fill="none"/><path d="M150 118c4-7 11-4 9 1c-1 3-5 2-4-1" stroke="#6e4f18" stroke-opacity=".55" stroke-width="1.1" fill="none" stroke-linecap="round"/><path d="M94 118c-4-7-11-4-9 1c1 3 5 2 4-1" stroke="#6e4f18" stroke-opacity=".55" stroke-width="1.1" fill="none" stroke-linecap="round"/>
<path d="M122 115.5l7.5 4.5v8l-7.5 4.5-7.5-4.5v-8z" fill="url(#frame-djinni-dark-brassv)" stroke="#6e4f18" stroke-width=".8"/><path d="M122 117.5l6 3.5v6.2l-6 3.5-6-3.5V121z" fill="#6a3fb5"/><path d="M122 120l3 1.8v3.4l-3 1.8-3-1.8v-3.4z" fill="#a98be8"/><path d="M122 117.5V120M128 121l-3 .8M128 127.2l-3-2M122 130.7v-3.7M116 127.2l3-2M116 121l3 .8" stroke="#3d2170" stroke-width=".6" stroke-opacity=".8"/><path d="M116 121l6-3.5v2.5l-3 1.8z" fill="#fff" opacity=".45"/><circle cx="120.4" cy="121.2" r=".9" fill="#fff"/>
<path d="M92 136q30 8 60 0" stroke="#fff" stroke-opacity=".2" stroke-width="2" fill="none"/>
<ellipse cx="122" cy="104" rx="26" ry="6" fill="url(#frame-djinni-dark-brassv)"/><circle cx="104" cy="106.44" r="1.3" fill="#6e4f18" opacity=".7"/><circle cx="110" cy="105.96" r="1.3" fill="#6e4f18" opacity=".7"/><circle cx="116" cy="105.48" r="1.3" fill="#6e4f18" opacity=".7"/><circle cx="122" cy="105.0" r="1.3" fill="#6e4f18" opacity=".7"/><circle cx="128" cy="105.48" r="1.3" fill="#6e4f18" opacity=".7"/><circle cx="134" cy="105.96" r="1.3" fill="#6e4f18" opacity=".7"/><circle cx="140" cy="106.44" r="1.3" fill="#6e4f18" opacity=".7"/>
<path d="M102 104q20-22 40 0z" fill="url(#frame-djinni-dark-brass)"/><ellipse cx="122" cy="90" rx="10" ry="3" fill="url(#frame-djinni-dark-brassv)"/><path d="M112 90q10-12 20 0z" fill="url(#frame-djinni-dark-brass)"/>
<path d="M108 98q8-8 16-6" stroke="#fff" stroke-opacity=".55" stroke-width="2" fill="none" stroke-linecap="round"/><circle cx="122" cy="97" r="2.6" fill="#3fb6a8"/><circle cx="121.2" cy="96.2" r=".9" fill="#fff" opacity=".8"/>
<rect x="120" y="72" width="4" height="14" rx="2" fill="url(#frame-djinni-dark-brassv)"/><circle cx="122" cy="71" r="4.5" fill="url(#frame-djinni-dark-brass)"/><circle cx="120.5" cy="69.5" r="1.3" fill="#fff" opacity=".7"/>
<circle cx="199" cy="88" r="15" fill="url(#frame-djinni-dark-fly)"/><path d="M199 76q6 7 3.5 11q-1.2 2.5-3.5 2.5q-2.3 0-3.5-2.5q-2.5-4 3.5-11z" fill="url(#frame-djinni-dark-flame)"/><path d="M199 82q2 3 1 5q-.5 1-1 1q-.5 0-1-1q-1-2 1-5z" fill="#fffbe6"/></g></svg>