<svg xmlns="http://www.w3.org/2000/svg" viewBox="0 0 240 180" width="240" height="180" role="img" aria-label="frame: a brass lantern with a candle flame"><defs>
<linearGradient id="frame-lantern-light-brass" x1="0" y1="0" x2="1" y2="1"><stop offset="0" stop-color="#f8e3a0"/><stop offset=".4" stop-color="#d4a543"/><stop offset=".75" stop-color="#a67a2a"/><stop offset="1" stop-color="#6e4f18"/></linearGradient>
<linearGradient id="frame-lantern-light-brassv" x1="0" y1="0" x2="0" y2="1"><stop offset="0" stop-color="#f8e3a0"/><stop offset=".5" stop-color="#c9973a"/><stop offset="1" stop-color="#7a5a1e"/></linearGradient>
<linearGradient id="frame-lantern-light-steel" x1="0" y1="0" x2="1" y2="1"><stop offset="0" stop-color="#f4f6f8"/><stop offset=".6" stop-color="#b9c3cc"/><stop offset="1" stop-color="#7e8a96"/></linearGradient>
<radialGradient id="frame-lantern-light-dish" cx=".38" cy=".3" r=".8"><stop offset="0" stop-color="#ffffff"/><stop offset=".55" stop-color="#cfd7de"/><stop offset="1" stop-color="#8b97a3"/></radialGradient>
<linearGradient id="frame-lantern-light-glass" x1="0" y1="0" x2="1" y2="0"><stop offset="0" stop-color="#ffffff" stop-opacity="0.55"/><stop offset=".35" stop-color="#bfe3f0" stop-opacity="0.16"/><stop offset="1" stop-color="#7fb4d6" stop-opacity="0.35"/></linearGradient>
<radialGradient id="frame-lantern-light-warm" cx=".5" cy=".5" r=".5"><stop offset="0" stop-color="#ffcf6a" stop-opacity="0.35"/><stop offset="1" stop-color="#ffcf6a" stop-opacity="0"/></radialGradient>
<radialGradient id="frame-lantern-light-fly" cx=".5" cy=".5" r=".5"><stop offset="0" stop-color="#ffe7a3" stop-opacity=".95"/><stop offset=".35" stop-color="#ffd58a" stop-opacity=".45"/><stop offset="1" stop-color="#ffd58a" stop-opacity="0"/></radialGradient>
<radialGradient id="frame-lantern-light-flame" cx=".5" cy=".7" r=".6"><stop offset="0" stop-color="#fffbe6"/><stop offset=".4" stop-color="#ffd24a"/><stop offset="1" stop-color="#ff7a1a"/></radialGradient>
<radialGradient id="frame-lantern-light-magic" cx=".5" cy=".5" r=".5"><stop offset="0" stop-color="#8f78d6" stop-opacity="0.35"/><stop offset="1" stop-color="#cbb8ff" stop-opacity="0"/></radialGradient>
<linearGradient id="frame-lantern-light-candle" x1="0" y1="0" x2="1" y2="0"><stop offset="0" stop-color="#fffaf0"/><stop offset=".6" stop-color="#f1e4c8"/><stop offset="1" stop-color="#cdb98f"/></linearGradient>
<linearGradient id="frame-lantern-light-paper" x1="0" y1="0" x2="0" y2="1"><stop offset="0" stop-color="#f3f1ec"/><stop offset="1" stop-color="#e4e0d8"/></linearGradient>
<filter id="frame-lantern-light-sh" x="-10%" y="-10%" width="120%" height="130%"><feDropShadow dx="0" dy="3" stdDeviation="3" flood-color="#2b2622" flood-opacity=".2"/></filter>
</defs><rect x="6" y="5" width="228" height="166" rx="14" fill="url(#frame-lantern-light-paper)" stroke="#d6cfc2" filter="url(#frame-lantern-light-sh)"/><ellipse cx="120" cy="158" rx="42" ry="6" fill="#000" opacity=".18"/><ellipse cx="120" cy="156" rx="40" ry="9" fill="url(#frame-lantern-light-warm)"/>
<circle cx="120" cy="90" r="46" fill="url(#frame-lantern-light-warm)"/>
<path d="M108 20a12 12 0 0 1 24 0" stroke="url(#frame-lantern-light-brass)" stroke-width="3.5" fill="none" stroke-linecap="round"/><rect x="118.5" y="20" width="3" height="18" fill="url(#frame-lantern-light-brassv)"/><circle cx="120" cy="37" r="4" fill="url(#frame-lantern-light-brass)"/>
<path d="M92 52q28-30 56 0z" fill="url(#frame-lantern-light-brass)"/><ellipse cx="106" cy="40" rx="2.2" ry="1.4" fill="#4a3510"/><ellipse cx="114" cy="40" rx="2.2" ry="1.4" fill="#4a3510"/><ellipse cx="122" cy="40" rx="2.2" ry="1.4" fill="#4a3510"/><ellipse cx="130" cy="40" rx="2.2" ry="1.4" fill="#4a3510"/><path d="M98 46q22-20 44 0" stroke="#fff" stroke-opacity=".45" stroke-width="2" fill="none"/>
<rect x="88" y="50" width="64" height="8" rx="3" fill="url(#frame-lantern-light-brassv)"/><circle cx="94" cy="54" r="1.3" fill="#6e4f18"/><circle cx="108" cy="54" r="1.3" fill="#6e4f18"/><circle cx="120" cy="54" r="1.3" fill="#6e4f18"/><circle cx="132" cy="54" r="1.3" fill="#6e4f18"/><circle cx="146" cy="54" r="1.3" fill="#6e4f18"/>
<rect x="94" y="58" width="52" height="68" fill="url(#frame-lantern-light-glass)"/>
<rect x="107" y="96" width="26" height="30" rx="2" fill="url(#frame-lantern-light-candle)"/><path d="M112 110q-1 6 1 8M126 110q1 4-1 6" stroke="#e9dcbc" stroke-width="2.4" stroke-linecap="round" fill="none"/><ellipse cx="120" cy="96" rx="13" ry="3" fill="#fffaf0"/>
<line x1="120" y1="96" x2="120" y2="90" stroke="#3a2a1a" stroke-width="1.5"/>
<circle cx="120" cy="80" r="14" fill="url(#frame-lantern-light-fly)"/>
<path d="M120 64q9 12 5 20q-2 5-5 5q-3 0-5-5q-4-8 5-20z" fill="url(#frame-lantern-light-flame)"/><path d="M120 76q3 5 1 9q-1 2-1 2q-1 0-2-2q-1-4 2-9z" fill="#fffbe6"/><ellipse cx="120" cy="88" rx="2.2" ry="1.4" fill="#8fd3ff" opacity=".8"/>
<rect x="91" y="56" width="5" height="72" rx="2" fill="url(#frame-lantern-light-brass)"/><rect x="144" y="56" width="5" height="72" rx="2" fill="url(#frame-lantern-light-brass)"/>
<line x1="96" y1="92" x2="144" y2="92" stroke="url(#frame-lantern-light-brass)" stroke-width="1.5" opacity=".7"/>
<path d="M100 62q-3 28 0 60" stroke="#fff" stroke-opacity=".75" stroke-width="3" stroke-linecap="round" fill="none"/><path d="M139 64v24" stroke="#fff" stroke-opacity=".35" stroke-width="1.5" stroke-linecap="round"/>
<rect x="86" y="126" width="68" height="10" rx="3" fill="url(#frame-lantern-light-brassv)"/><circle cx="92" cy="131" r="1.3" fill="#6e4f18"/><circle cx="106" cy="131" r="1.3" fill="#6e4f18"/><circle cx="120" cy="131" r="1.3" fill="#6e4f18"/><circle cx="134" cy="131" r="1.3" fill="#6e4f18"/><circle cx="148" cy="131" r="1.3" fill="#6e4f18"/>
<path d="M92 136h56l6 12h-68z" fill="url(#frame-lantern-light-brass)"/><rect x="84" y="147" width="72" height="5" rx="2" fill="url(#frame-lantern-light-brassv)"/>
<rect x="88" y="127.5" width="64" height="2" rx="1" fill="#fff" opacity=".5"/></svg>