<svg xmlns="http://www.w3.org/2000/svg" viewBox="0 0 240 180" width="240" height="180" role="img" aria-label="frame: a brass djinni lamp with a flame and a curl of magic smoke"><defs>
<linearGradient id="frame-djinni-dark-brass" x1="0" y1="0" x2="1" y2="1"><stop offset="0" stop-color="#f8e3a0"/><stop offset=".4" stop-color="#d4a543"/><stop offset=".75" stop-color="#a67a2a"/><stop offset="1" stop-color="#6e4f18"/></linearGradient>
<linearGradient id="frame-djinni-dark-brassv" x1="0" y1="0" x2="0" y2="1"><stop offset="0" stop-color="#f8e3a0"/><stop offset=".5" stop-color="#c9973a"/><stop offset="1" stop-color="#7a5a1e"/></linearGradient>
<linearGradient id="frame-djinni-dark-steel" x1="0" y1="0" x2="1" y2="1"><stop offset="0" stop-color="#f4f6f8"/><stop offset=".6" stop-color="#b9c3cc"/><stop offset="1" stop-color="#7e8a96"/></linearGradient>
<radialGradient id="frame-djinni-dark-dish" cx=".38" cy=".3" r=".8"><stop offset="0" stop-color="#ffffff"/><stop offset=".55" stop-color="#cfd7de"/><stop offset="1" stop-color="#8b97a3"/></radialGradient>
<linearGradient id="frame-djinni-dark-glass" x1="0" y1="0" x2="1" y2="0"><stop offset="0" stop-color="#ffffff" stop-opacity="0.22"/><stop offset=".35" stop-color="#bfe3f0" stop-opacity="0.08"/><stop offset="1" stop-color="#7fb4d6" stop-opacity="0.2"/></linearGradient>
<radialGradient id="frame-djinni-dark-warm" cx=".5" cy=".5" r=".5"><stop offset="0" stop-color="#ffcf6a" stop-opacity="0.6"/><stop offset="1" stop-color="#ffcf6a" stop-opacity="0"/></radialGradient>
<radialGradient id="frame-djinni-dark-fly" cx=".5" cy=".5" r=".5"><stop offset="0" stop-color="#ffe7a3" stop-opacity=".95"/><stop offset=".35" stop-color="#ffd58a" stop-opacity=".45"/><stop offset="1" stop-color="#ffd58a" stop-opacity="0"/></radialGradient>
<radialGradient id="frame-djinni-dark-flame" cx=".5" cy=".7" r=".6"><stop offset="0" stop-color="#fffbe6"/><stop offset=".4" stop-color="#ffd24a"/><stop offset="1" stop-color="#ff7a1a"/></radialGradient>
<radialGradient id="frame-djinni-dark-magic" cx=".5" cy=".5" r=".5"><stop offset="0" stop-color="#cbb8ff" stop-opacity="0.55"/><stop offset="1" stop-color="#cbb8ff" stop-opacity="0"/></radialGradient>
<linearGradient id="frame-djinni-dark-candle" x1="0" y1="0" x2="1" y2="0"><stop offset="0" stop-color="#fffaf0"/><stop offset=".6" stop-color="#f1e4c8"/><stop offset="1" stop-color="#cdb98f"/></linearGradient>
<linearGradient id="frame-djinni-dark-paper" x1="0" y1="0" x2="0" y2="1"><stop offset="0" stop-color="#f3f1ec"/><stop offset="1" stop-color="#e4e0d8"/></linearGradient>
<filter id="frame-djinni-dark-sh" x="-10%" y="-10%" width="120%" height="130%"><feDropShadow dx="0" dy="3" stdDeviation="3" flood-color="#2b2622" flood-opacity=".2"/></filter>
</defs><rect width="240" height="180" rx="12" fill="#141a2e"/><circle cx="28" cy="24" r="1.2" fill="#eee6cf" opacity=".7"/><circle cx="62" cy="44" r="0.9" fill="#eee6cf" opacity=".7"/><circle cx="206" cy="30" r="1.3" fill="#eee6cf" opacity=".7"/><circle cx="188" cy="62" r="0.8" fill="#eee6cf" opacity=".7"/><circle cx="40" cy="88" r="0.8" fill="#eee6cf" opacity=".7"/><circle cx="216" cy="104" r="1" fill="#eee6cf" opacity=".7"/><ellipse cx="122" cy="156" rx="52" ry="6" fill="#000" opacity=".18"/>
<circle cx="170" cy="56" r="56" fill="url(#frame-djinni-dark-magic)"/>
<path d="M199 76c-9-12 7-20 0-34c-6-11-22-8-21 3c1 8 12 7 11-1" stroke="#d9ccff" stroke-width="6" stroke-linecap="round" fill="none" opacity=".35"/>
<path d="M199 76c-9-12 7-20 0-34c-6-11-22-8-21 3c1 8 12 7 11-1" stroke="#d9ccff" stroke-width="2.2" stroke-linecap="round" fill="none" opacity=".85"/><path transform="translate(146 30) scale(0.9)" d="M0-5L1.3-1.3 5 0 1.3 1.3 0 5-1.3 1.3-5 0-1.3-1.3z" fill="#fff3c4"/><path transform="translate(176 52) scale(0.6)" d="M0-5L1.3-1.3 5 0 1.3 1.3 0 5-1.3 1.3-5 0-1.3-1.3z" fill="#fff3c4"/><path transform="translate(132 58) scale(0.5)" d="M0-5L1.3-1.3 5 0 1.3 1.3 0 5-1.3 1.3-5 0-1.3-1.3z" fill="#fff3c4"/><path transform="translate(196 26) scale(0.7)" d="M0-5L1.3-1.3 5 0 1.3 1.3 0 5-1.3 1.3-5 0-1.3-1.3z" fill="#fff3c4"/>
<path d="M84 116c-26-10-34 20-8 20" stroke="url(#frame-djinni-dark-brass)" stroke-width="7" fill="none" stroke-linecap="round"/><path d="M82 118c-18-6-24 12-8 14" stroke="#fff" stroke-opacity=".4" stroke-width="1.8" fill="none" stroke-linecap="round"/>
<path d="M108 138h28l6 12h-40z" fill="url(#frame-djinni-dark-brass)"/><ellipse cx="122" cy="150" rx="22" ry="4" fill="url(#frame-djinni-dark-brassv)"/>
<path d="M150 112c18-4 32-12 44-22l5 5c-10 14-26 26-46 32z" fill="url(#frame-djinni-dark-brass)"/><path d="M154 114c16-4 28-11 40-21" stroke="#fff" stroke-opacity=".5" stroke-width="1.5" fill="none"/>
<ellipse cx="122" cy="120" rx="42" ry="20" fill="url(#frame-djinni-dark-brass)"/><path d="M92 122q6 -8 12 0" stroke="#6e4f18" stroke-opacity=".55" stroke-width="1.3" fill="none"/><path d="M106 122q6 -8 12 0" stroke="#6e4f18" stroke-opacity=".55" stroke-width="1.3" fill="none"/><path d="M120 122q6 -8 12 0" stroke="#6e4f18" stroke-opacity=".55" stroke-width="1.3" fill="none"/><path d="M134 122q6 -8 12 0" stroke="#6e4f18" stroke-opacity=".55" stroke-width="1.3" fill="none"/><circle cx="94" cy="128" r="1.2" fill="#6e4f18" opacity=".6"/><circle cx="101" cy="128" r="1.2" fill="#6e4f18" opacity=".6"/><circle cx="108" cy="128" r="1.2" fill="#6e4f18" opacity=".6"/><circle cx="115" cy="128" r="1.2" fill="#6e4f18" opacity=".6"/><circle cx="122" cy="128" r="1.2" fill="#6e4f18" opacity=".6"/><circle cx="129" cy="128" r="1.2" fill="#6e4f18" opacity=".6"/><circle cx="136" cy="128" r="1.2" fill="#6e4f18" opacity=".6"/><circle cx="143" cy="128" r="1.2" fill="#6e4f18" opacity=".6"/>
<path d="M88 112q14-12 34-12" stroke="#fff" stroke-opacity=".7" stroke-width="3" stroke-linecap="round" fill="none"/>
<ellipse cx="122" cy="102" rx="24" ry="6" fill="url(#frame-djinni-dark-brassv)"/><path d="M100 102q22-26 44 0z" fill="url(#frame-djinni-dark-brass)"/>
<path d="M108 94q10-10 22-6" stroke="#fff" stroke-opacity=".55" stroke-width="2" fill="none" stroke-linecap="round"/>
<rect x="119" y="74" width="6" height="8" rx="2" fill="url(#frame-djinni-dark-brassv)"/><circle cx="122" cy="72" r="4.5" fill="url(#frame-djinni-dark-brass)"/><circle cx="120.5" cy="70.5" r="1.3" fill="#fff" opacity=".7"/>
<circle cx="199" cy="88" r="13" fill="url(#frame-djinni-dark-fly)"/><path d="M199 78q5 6 3 10q-1 2-3 2q-2 0-3-2q-2-4 3-10z" fill="url(#frame-djinni-dark-flame)"/></svg>